<svg version="1.1" id="Layer_1" xmlns="http://www.w3.org/2000/svg" xmlns:xlink="http://www.w3.org/1999/xlink" x="0px" y="0px"
	 width="100%" viewBox="0 0 416 352" enable-background="new 0 0 416 352" xml:space="preserve">
<path fill="#000000" opacity="1.000000" stroke="none" 
	d="
M212.733932,272.044739 
	C195.283875,275.718445 178.600189,275.027557 162.362793,268.188629 
	C153.911255,264.629028 146.761642,259.253082 140.430878,252.772659 
	C135.680969,247.910416 135.410065,243.703842 139.762222,238.639511 
	C149.391754,227.434250 157.568619,214.797043 170.326889,206.593414 
	C182.066650,199.044647 194.833878,194.919312 208.921463,194.671280 
	C236.897598,194.178772 260.373871,183.799484 278.527191,162.152054 
	C279.704773,160.747818 280.892090,159.350693 282.110535,157.981995 
	C284.869324,154.883072 288.168427,153.340027 292.355927,154.619797 
	C296.788269,155.974396 297.917175,159.585419 298.171478,163.593216 
	C298.996521,176.595428 296.947113,189.257141 292.230743,201.303619 
	C278.642151,236.011322 254.059219,259.222839 218.457092,270.585907 
	C216.719421,271.140533 214.915054,271.486176 212.733932,272.044739 
z"/>
<path fill="#000000" opacity="1.000000" stroke="none" 
	d="
M153.533203,130.533691 
	C169.865021,114.170418 188.955521,103.426781 211.362228,99.293640 
	C236.761856,94.608406 259.595337,100.135231 278.780548,118.149750 
	C284.355591,123.384636 284.608643,128.566498 279.568848,134.290314 
	C272.424683,142.404129 266.190460,151.323639 258.179260,158.667404 
	C245.266891,170.504013 229.959610,176.980515 212.513809,177.219925 
	C182.475143,177.632111 157.999908,188.998123 139.239166,212.538864 
	C136.688934,215.738876 133.794388,218.575867 129.223007,217.975204 
	C124.612587,217.369431 122.077568,213.785324 121.854919,207.613403 
	C121.196686,189.366211 125.683723,172.340698 134.272980,156.332352 
	C139.343018,146.882996 145.641479,138.329620 153.533203,130.533691 
z"/>
</svg>