<?xml version="1.0" encoding="UTF-8"?>
<svg xmlns="http://www.w3.org/2000/svg" xmlns:xlink="http://www.w3.org/1999/xlink" width="48px" height="48px" viewBox="0 0 48 48" version="1.1">
<g id="surface1">
<path style=" stroke:none;fill-rule:nonzero;fill:rgb(0%,0%,0%);fill-opacity:1;" d="M 24.546875 37.097656 C 22.53125 37.597656 20.609375 37.503906 18.734375 36.570312 C 17.757812 36.085938 16.933594 35.351562 16.203125 34.46875 C 15.65625 33.804688 15.625 33.230469 16.125 32.542969 C 17.238281 31.015625 18.179688 29.289062 19.652344 28.171875 C 21.007812 27.140625 22.480469 26.578125 24.105469 26.546875 C 27.335938 26.480469 30.042969 25.0625 32.136719 22.113281 C 32.273438 21.921875 32.410156 21.730469 32.550781 21.542969 C 32.871094 21.121094 33.25 20.910156 33.734375 21.085938 C 34.246094 21.269531 34.375 21.761719 34.40625 22.308594 C 34.5 24.082031 34.261719 25.808594 33.71875 27.449219 C 32.152344 32.183594 29.316406 35.347656 25.207031 36.898438 C 25.007812 36.972656 24.796875 37.019531 24.546875 37.097656 Z M 24.546875 37.097656 "/>
<path style=" stroke:none;fill-rule:nonzero;fill:rgb(0%,0%,0%);fill-opacity:1;" d="M 17.714844 17.800781 C 19.601562 15.570312 21.800781 14.105469 24.386719 13.539062 C 27.320312 12.902344 29.953125 13.65625 32.167969 16.113281 C 32.808594 16.824219 32.839844 17.53125 32.257812 18.3125 C 31.433594 19.417969 30.714844 20.636719 29.789062 21.636719 C 28.300781 23.25 26.535156 24.132812 24.519531 24.167969 C 21.054688 24.222656 18.230469 25.773438 16.066406 28.984375 C 15.773438 29.417969 15.4375 29.804688 14.910156 29.722656 C 14.378906 29.640625 14.085938 29.152344 14.058594 28.3125 C 13.984375 25.824219 14.503906 23.5 15.492188 21.316406 C 16.078125 20.03125 16.804688 18.863281 17.714844 17.800781 Z M 17.714844 17.800781 "/>
</g>
</svg>
