<?xml version="1.0" encoding="UTF-8"?>
<svg version="1.1" xmlns="http://www.w3.org/2000/svg" width="512" height="512">
<path d="M0 0 C8.76740262 5.12893053 15.66115613 13.7421106 22.171875 21.390625 C24.59866568 24.14098777 27.22611729 26.67489388 29.84375 29.2421875 C31.77565586 31.21242483 33.54263599 33.25920802 35.3125 35.375 C38.12469721 38.64737493 41.08529921 41.17638221 44.625 43.6328125 C46.53400387 45.04411179 48.26709007 46.51884496 50.04296875 48.08984375 C53.83762262 51.36626725 57.87146449 54.04628406 62.125 56.6875 C62.93912354 57.19627686 63.75324707 57.70505371 64.59204102 58.22924805 C100.18772447 80.2795246 137.1807615 100.48090981 176.8125 114.25 C177.72418945 114.56807617 178.63587891 114.88615234 179.57519531 115.21386719 C197.50506958 121.3883507 215.81880426 125.64233939 234.45703125 129.0390625 C235.2953952 129.19187683 236.13375916 129.34469116 236.99752808 129.50213623 C241.15513994 130.25616682 245.31468211 130.99596329 249.47851562 131.71484375 C267.97425038 134.95321107 284.2742869 139.54195268 297.8125 153.25 C298.38742187 153.80300781 298.96234375 154.35601562 299.5546875 154.92578125 C308.39900508 164.15961541 311.34549914 176.18666625 311.08203125 188.5546875 C310.72778974 193.41138998 309.72049584 196.39482837 306.8125 200.25 C306.04292969 201.301875 306.04292969 201.301875 305.2578125 202.375 C284.16570051 228.44593671 241.2829504 242.3077105 210.125 250.1875 C209.38499756 250.37473633 208.64499512 250.56197266 207.88256836 250.75488281 C205.53440812 251.3108141 203.18040516 251.78497494 200.8125 252.25 C199.96676579 252.4223498 199.12103159 252.59469959 198.24966908 252.77227211 C185.95790985 254.89829609 173.55537485 254.54995888 161.12113345 254.54076743 C157.63550872 254.5403553 154.14991601 254.55143604 150.66430664 254.56088257 C143.85054322 254.57741119 137.03681442 254.58298849 130.22303262 254.58410732 C124.67437735 254.58506208 119.12573337 254.58919355 113.57708168 254.59550858 C97.79388589 254.61310199 82.01071716 254.62235091 66.22751149 254.62084763 C65.3787535 254.62076772 64.52999551 254.6206878 63.65551758 254.62060547 C62.80570469 254.62052371 61.9558918 254.62044195 61.08032701 254.62035771 C47.33405739 254.61954627 33.58789773 254.63865303 19.84165987 254.6668822 C5.67638272 254.69573868 -8.48884105 254.70941539 -22.65414828 254.70769465 C-30.58632633 254.70703493 -38.51838924 254.71234102 -46.45054054 254.73405075 C-53.20915131 254.75243198 -59.96759481 254.75647354 -66.72621999 254.7430319 C-70.16243056 254.73658496 -73.59806537 254.73833193 -77.03428459 254.7537384 C-116.1820013 254.91771057 -160.41674878 248.48052579 -190.06640625 220.4375 C-197.86197198 212.3978742 -201.39135337 205.26725936 -201.6875 194 C-201.71827637 193.32138916 -201.74905273 192.64277832 -201.78076172 191.94360352 C-201.78336003 180.85269672 -194.97303591 170.77769087 -189.95532227 161.22192383 C-182.42084764 146.83113648 -176.42118963 133.49662968 -174.1875 117.25 C-173.96591565 115.92776411 -173.7408792 114.60610017 -173.51171875 113.28515625 C-171.42343986 99.97415404 -171.09599713 86.38950508 -171.25 72.9375 C-171.34839634 60.80682628 -171.27585278 48.41276797 -163.0625 38.75 C-158.75049345 36.50025745 -154.94841804 36.53885658 -150.1875 37.25 C-138.97666513 41.6956759 -132.98171964 53.32592365 -126.84326172 63.06640625 C-117.45282835 77.92197471 -105.95754458 85.63436107 -89.25 90.85546875 C-74.71110977 93.63658222 -60.29073716 89.37850543 -48.1875 81.25 C-42.96161376 77.07224349 -38.12610069 72.68688387 -34.1875 67.25 C-34.1875 63.25104911 -36.23706645 60.02092522 -38.15234375 56.60546875 C-43.39389109 44.67847612 -42.8256804 29.10445096 -38.4453125 17.05078125 C-34.95016365 9.26810509 -30.57509035 3.6605017 -23.1875 -0.75 C-16.2016923 -3.07860257 -6.7819407 -2.98228663 0 0 Z M-18.4375 18.1875 C-23.36148384 26.80447171 -24.61115502 35.8153571 -22.73046875 45.63671875 C-22.17410286 47.70994412 -22.17410286 47.70994412 -21.1875 50.25 C-19.764375 48.9815625 -19.764375 48.9815625 -18.3125 47.6875 C-10.47555762 41.03082002 -3.07831211 36.27741587 6.8125 33.25 C0.06413975 23.41823071 0.06413975 23.41823071 -9.1875 16.25 C-14.25219542 15.64833591 -14.25219542 15.64833591 -18.4375 18.1875 Z M-8.85498047 63.31933594 C-11.93602729 67.38253564 -14.90043606 71.52769413 -17.87109375 75.671875 C-29.21636007 91.46494683 -45.22356962 104.65243468 -64.671875 108.8125 C-85.95090926 111.4605576 -105.94083977 107.53998394 -123.546875 94.9296875 C-133.72000367 86.89962908 -140.53982917 76.61592975 -147.27026367 65.70605469 C-149.18987335 62.42981587 -149.18987335 62.42981587 -152.1875 60.25 C-153.24959514 67.98065968 -153.37837878 75.67256134 -153.51797485 83.45983887 C-154.45094609 131.4474288 -154.45094609 131.4474288 -162.875 147.45703125 C-164.57430361 150.23906444 -164.57430361 150.23906444 -163.1875 153.25 C-161.4438888 154.44974665 -161.4438888 154.44974665 -159.2265625 155.4140625 C-158.37610352 155.80964355 -157.52564453 156.20522461 -156.64941406 156.61279297 C-155.71323242 157.02932129 -154.77705078 157.44584961 -153.8125 157.875 C-152.84022461 158.31086426 -151.86794922 158.74672852 -150.86621094 159.19580078 C-104.90202106 179.2751998 -66.12612135 179.91774615 -17.60180664 170.35693359 C-2.72921616 167.46246708 11.61880262 165.86097922 26.75 165.9375 C27.50707245 165.93932281 28.2641449 165.94114563 29.04415894 165.94302368 C42.8029794 165.99833353 56.22419393 167.00180215 69.8125 169.25 C70.781875 169.4056543 71.75125 169.56130859 72.75 169.72167969 C96.73896171 173.67512371 120.30306781 180.15789183 143.79296875 186.34765625 C193.02119928 199.22543751 242.97383172 197.0399558 287.8125 171.25 C285.8400473 167.69958514 283.81344385 164.98615469 280.8125 162.25 C280.131875 161.610625 279.45125 160.97125 278.75 160.3125 C270.87302893 154.78186074 262.44098503 152.39603328 253.0625 150.8125 C250.7616666 150.39351542 248.46088767 149.9742317 246.16015625 149.5546875 C243.71099947 149.11944281 241.26177929 148.68455474 238.8125 148.25 C210.38950337 143.14663748 183.04853325 136.31411646 155.98779297 126.06274414 C154.27554021 125.42300347 152.54656167 124.82802056 150.8125 124.25 C150.42916504 124.75974365 150.04583008 125.2694873 149.65087891 125.79467773 C147.91714686 128.09537849 146.17741539 130.39147242 144.4375 132.6875 C143.53257812 133.89116211 143.53257812 133.89116211 142.609375 135.11914062 C142.02929688 135.88291016 141.44921875 136.64667969 140.8515625 137.43359375 C140.31740723 138.14056396 139.78325195 138.84753418 139.23291016 139.57592773 C137.48920425 141.63103111 136.42513751 142.1790875 133.75390625 142.48828125 C127.38914648 142.68685339 127.38914648 142.68685339 124.75 140.6875 C123.4489255 137.3047063 123.48667843 134.86774293 123.8125 131.25 C125.23756681 128.74765054 126.56961888 126.6802164 128.3125 124.4375 C131.52916121 120.71691211 131.52916121 120.71691211 132.8125 116.25 C130.59140472 115.0447778 128.3627135 113.86112596 126.125 112.6875 C125.18624023 112.17413086 125.18624023 112.17413086 124.22851562 111.65039062 C121.48468741 110.22819694 119.25364696 109.26356382 116.14453125 109.16796875 C112.73806309 110.74852433 111.32021282 113.06884452 109.1875 116.125 C102.89932977 125.03145271 102.89932977 125.03145271 99.65625 125.68359375 C93.42297599 125.69398254 93.42297599 125.69398254 90.75 123.75 C89.32736352 119.95630273 88.68645086 117.14112536 89.8125 113.25 C91.98687752 109.88729988 94.30377636 106.88563531 96.84375 103.7890625 C99.01675385 101.52206301 99.01675385 101.52206301 98.8125 99.25 C93.5325 96.28 88.2525 93.31 82.8125 90.25 C79.52620976 93.53629024 76.92115603 96.65393644 74.1875 100.375 C70.00694444 106.05555556 70.00694444 106.05555556 67.8125 108.25 C65.75390625 108.55078125 65.75390625 108.55078125 63.375 108.5625 C62.20130859 108.58763672 62.20130859 108.58763672 61.00390625 108.61328125 C58.27556576 108.16098951 57.4395109 107.45952097 55.8125 105.25 C54.91274494 101.02807243 54.63140084 98.33388334 56.80712891 94.49511719 C58.93674455 91.27937248 61.25360082 88.23117413 63.625 85.19140625 C66.01141852 82.59346815 66.01141852 82.59346815 65.8125 80.25 C63.33839781 78.6182707 60.87590341 77.10299836 58.3125 75.625 C57.59707031 75.20476562 56.88164062 74.78453125 56.14453125 74.3515625 C54.37103967 73.31111411 52.59224734 72.27971096 50.8125 71.25 C46.23793006 75.61625619 42.48096552 80.408773 38.65429688 85.4296875 C35.01433983 90.14908009 35.01433983 90.14908009 32.8125 91.25 C25.60105326 91.70786963 25.60105326 91.70786963 22.875 90.125 C21.28803664 87.32447642 20.87385306 85.50171192 20.8125 82.25 C23.24956749 75.71422811 27.32651966 70.99007567 31.88671875 65.765625 C33.66490482 63.44280182 34.41972469 62.09928531 34.8125 59.25 C28.97937469 53.57452673 22.20667979 50.77134336 14.125 49.8125 C4.57141241 51.07429459 -2.85361386 55.87166634 -8.85498047 63.31933594 Z M-173.1875 168.25 C-174.88721934 171.52557616 -176.54071816 174.82253479 -178.1875 178.125 C-178.66445312 179.0428125 -179.14140625 179.960625 -179.6328125 180.90625 C-182.69015955 187.10829688 -184.21387293 192.313497 -183.1875 199.25 C-177.33872924 212.27680761 -161.20418235 219.99662526 -148.54541016 225.04370117 C-137.38918881 229.27262293 -125.90028066 232.05433981 -114.1875 234.25 C-113.31789768 234.42479983 -112.44829536 234.59959967 -111.55234146 234.77969646 C-98.7114529 237.00367638 -85.70888105 236.5381024 -72.72167969 236.5246582 C-69.94096961 236.52792081 -67.16026769 236.53413189 -64.37956238 236.54014587 C-57.6363232 236.55283381 -50.89312395 236.55469395 -44.14987484 236.55234561 C-38.66265876 236.55055549 -33.1754547 236.5523269 -27.68824005 236.55657005 C-26.51241393 236.55746284 -26.51241393 236.55746284 -25.31283374 236.55837366 C-23.71985338 236.55958553 -22.12687302 236.56079967 -20.53389266 236.56201603 C-5.62607984 236.57286902 9.2817103 236.57073984 24.18952438 236.56463119 C37.79177423 236.55946519 51.3939524 236.57071309 64.99618807 236.58972941 C79.00209866 236.60915817 93.00797543 236.61735493 107.01389956 236.61360615 C114.86143527 236.61170159 122.70891001 236.61410849 130.55643463 236.62832069 C137.23800557 236.64030001 143.91947801 236.64156673 150.60105047 236.62953053 C154.00188008 236.62368703 157.40238447 236.62407702 160.80322456 236.63453293 C178.50762256 236.68500847 195.44094263 236.04570084 212.4375 230.625 C213.24904541 230.37266602 214.06059082 230.12033203 214.89672852 229.86035156 C240.69941805 221.65849504 267.77506334 212.10876391 287.8125 193.25 C287.1525 192.92 286.4925 192.59 285.8125 192.25 C282.97476962 193.37111618 280.2162681 194.55899501 277.4375 195.8125 C226.54091724 217.90608985 175.22689832 212.65321079 123.0625 198.8125 C76.66330391 186.50997711 32.50258915 178.49701888 -15.1875 187.25 C-16.78745207 187.53759495 -18.38755943 187.8243269 -19.98779297 188.11035156 C-20.83498901 188.2618013 -21.68218506 188.41325104 -22.55505371 188.56929016 C-23.42247192 188.72431503 -24.28989014 188.8793399 -25.18359375 189.0390625 C-30.39656504 189.97116823 -35.60825424 190.90858171 -40.81494141 191.87524414 C-86.48821769 200.31742991 -128.93812997 189.26654294 -170.29931641 169.11694336 C-171.99268144 168.18045641 -171.99268144 168.18045641 -173.1875 168.25 Z " fill="#000000" transform="translate(201.1875,112.75)"/>
</svg>
